<mxfile host="app.diagrams.net" modified="2023-01-17T10:10:10.784Z" agent="5.0 (Macintosh; Intel Mac OS X 10_15_2) AppleWebKit/605.1.15 (KHTML, like Gecko) Version/13.0.4 Safari/605.1.15" etag="nxqA-k2BYAjxUuSGEHsj" version="20.8.5" type="github">
  <diagram id="C5RBs43oDa-KdzZeNtuy" name="Page-1">
    <mxGraphModel dx="2161" dy="1970" grid="1" gridSize="10" guides="1" tooltips="1" connect="1" arrows="1" fold="1" page="1" pageScale="1" pageWidth="827" pageHeight="1169" math="0" shadow="0">
      <root>
        <mxCell id="WIyWlLk6GJQsqaUBKTNV-0" />
        <mxCell id="WIyWlLk6GJQsqaUBKTNV-1" parent="WIyWlLk6GJQsqaUBKTNV-0" />
        <mxCell id="IW3bgXy1cVHlPl-f8HG7-2" value="&lt;span style=&quot;font-size: 17px;&quot;&gt;搜索曝光/点击日志&lt;/span&gt;" style="rounded=0;whiteSpace=wrap;html=1;fillColor=#d5e8d4;strokeColor=#82b366;" vertex="1" parent="WIyWlLk6GJQsqaUBKTNV-1">
          <mxGeometry x="-80" y="510" width="150" height="60" as="geometry" />
        </mxCell>
        <mxCell id="IW3bgXy1cVHlPl-f8HG7-3" value="&lt;span style=&quot;font-size: 17px;&quot;&gt;odps - 数据表&lt;/span&gt;" style="rounded=0;whiteSpace=wrap;html=1;fillColor=#fff2cc;strokeColor=#d6b656;" vertex="1" parent="WIyWlLk6GJQsqaUBKTNV-1">
          <mxGeometry x="400" y="555" width="360" height="60" as="geometry" />
        </mxCell>
        <mxCell id="IW3bgXy1cVHlPl-f8HG7-5" value="&lt;font style=&quot;font-size: 17px;&quot;&gt;搜索折扣库&lt;/font&gt;" style="rounded=0;whiteSpace=wrap;html=1;" vertex="1" parent="WIyWlLk6GJQsqaUBKTNV-1">
          <mxGeometry x="-65" y="580" width="125" height="50" as="geometry" />
        </mxCell>
        <mxCell id="IW3bgXy1cVHlPl-f8HG7-6" value="" style="shape=flexArrow;endArrow=classic;html=1;rounded=0;fontSize=17;" edge="1" parent="WIyWlLk6GJQsqaUBKTNV-1">
          <mxGeometry width="50" height="50" relative="1" as="geometry">
            <mxPoint x="140" y="583" as="sourcePoint" />
            <mxPoint x="390" y="583" as="targetPoint" />
          </mxGeometry>
        </mxCell>
        <mxCell id="IW3bgXy1cVHlPl-f8HG7-8" value="数据处理" style="text;html=1;strokeColor=none;fillColor=none;align=center;verticalAlign=middle;whiteSpace=wrap;rounded=0;fontSize=17;" vertex="1" parent="WIyWlLk6GJQsqaUBKTNV-1">
          <mxGeometry x="205" y="540" width="110" height="30" as="geometry" />
        </mxCell>
        <mxCell id="IW3bgXy1cVHlPl-f8HG7-10" value="" style="shape=flexArrow;endArrow=classic;html=1;rounded=0;fontSize=17;" edge="1" parent="WIyWlLk6GJQsqaUBKTNV-1">
          <mxGeometry width="50" height="50" relative="1" as="geometry">
            <mxPoint x="780" y="585" as="sourcePoint" />
            <mxPoint x="960" y="585" as="targetPoint" />
          </mxGeometry>
        </mxCell>
        <mxCell id="IW3bgXy1cVHlPl-f8HG7-11" value="特征工程" style="text;html=1;strokeColor=none;fillColor=none;align=center;verticalAlign=middle;whiteSpace=wrap;rounded=0;fontSize=17;" vertex="1" parent="WIyWlLk6GJQsqaUBKTNV-1">
          <mxGeometry x="810" y="540" width="110" height="30" as="geometry" />
        </mxCell>
        <mxCell id="IW3bgXy1cVHlPl-f8HG7-12" value="&lt;span style=&quot;font-size: 17px;&quot;&gt;PAI - 训练平台&lt;/span&gt;" style="rounded=0;whiteSpace=wrap;html=1;fillColor=#f8cecc;strokeColor=#b85450;" vertex="1" parent="WIyWlLk6GJQsqaUBKTNV-1">
          <mxGeometry x="980" y="560" width="180" height="60" as="geometry" />
        </mxCell>
        <mxCell id="IW3bgXy1cVHlPl-f8HG7-14" value="" style="shape=flexArrow;endArrow=classic;html=1;rounded=0;fontSize=17;" edge="1" parent="WIyWlLk6GJQsqaUBKTNV-1">
          <mxGeometry width="50" height="50" relative="1" as="geometry">
            <mxPoint x="480" y="550" as="sourcePoint" />
            <mxPoint x="480" y="460" as="targetPoint" />
            <Array as="points">
              <mxPoint x="480" y="537.5" />
            </Array>
          </mxGeometry>
        </mxCell>
        <mxCell id="IW3bgXy1cVHlPl-f8HG7-15" value="" style="shape=flexArrow;endArrow=classic;html=1;rounded=0;fontSize=17;" edge="1" parent="WIyWlLk6GJQsqaUBKTNV-1">
          <mxGeometry width="50" height="50" relative="1" as="geometry">
            <mxPoint x="720" y="550" as="sourcePoint" />
            <mxPoint x="720" y="450" as="targetPoint" />
            <Array as="points">
              <mxPoint x="720" y="540" />
              <mxPoint x="720" y="485" />
            </Array>
          </mxGeometry>
        </mxCell>
        <mxCell id="IW3bgXy1cVHlPl-f8HG7-16" value="特征工程" style="text;html=1;strokeColor=none;fillColor=none;align=center;verticalAlign=middle;whiteSpace=wrap;rounded=0;fontSize=17;" vertex="1" parent="WIyWlLk6GJQsqaUBKTNV-1">
          <mxGeometry x="550" y="490" width="80" height="30" as="geometry" />
        </mxCell>
        <mxCell id="IW3bgXy1cVHlPl-f8HG7-17" value="ots - 用户特征表&amp;nbsp;" style="rounded=0;whiteSpace=wrap;html=1;fontSize=17;fillColor=#fff2cc;strokeColor=#d6b656;" vertex="1" parent="WIyWlLk6GJQsqaUBKTNV-1">
          <mxGeometry x="640" y="390" width="160" height="60" as="geometry" />
        </mxCell>
        <mxCell id="IW3bgXy1cVHlPl-f8HG7-18" value="ots - 商品离线特征表&amp;nbsp;" style="rounded=0;whiteSpace=wrap;html=1;fontSize=17;fillColor=#fff2cc;strokeColor=#d6b656;" vertex="1" parent="WIyWlLk6GJQsqaUBKTNV-1">
          <mxGeometry x="380" y="390" width="190" height="60" as="geometry" />
        </mxCell>
        <mxCell id="IW3bgXy1cVHlPl-f8HG7-19" value="" style="shape=flexArrow;endArrow=classic;html=1;rounded=0;fontSize=17;" edge="1" parent="WIyWlLk6GJQsqaUBKTNV-1">
          <mxGeometry width="50" height="50" relative="1" as="geometry">
            <mxPoint x="1058.33" y="550" as="sourcePoint" />
            <mxPoint x="1058.04" y="460" as="targetPoint" />
            <Array as="points">
              <mxPoint x="1058.33" y="540" />
              <mxPoint x="1058.33" y="485" />
            </Array>
          </mxGeometry>
        </mxCell>
        <mxCell id="IW3bgXy1cVHlPl-f8HG7-20" value="oss - 模型文件" style="rounded=0;whiteSpace=wrap;html=1;fontSize=17;" vertex="1" parent="WIyWlLk6GJQsqaUBKTNV-1">
          <mxGeometry x="990" y="400" width="137.5" height="50" as="geometry" />
        </mxCell>
        <mxCell id="IW3bgXy1cVHlPl-f8HG7-21" value="训练" style="text;html=1;strokeColor=none;fillColor=none;align=center;verticalAlign=middle;whiteSpace=wrap;rounded=0;fontSize=17;" vertex="1" parent="WIyWlLk6GJQsqaUBKTNV-1">
          <mxGeometry x="1040" y="490" width="100" height="30" as="geometry" />
        </mxCell>
        <mxCell id="IW3bgXy1cVHlPl-f8HG7-22" value="EAS - 排序层 模型在线服务" style="rounded=0;whiteSpace=wrap;html=1;fontSize=17;fillColor=#f8cecc;strokeColor=#b85450;" vertex="1" parent="WIyWlLk6GJQsqaUBKTNV-1">
          <mxGeometry x="870" y="40" width="250" height="140" as="geometry" />
        </mxCell>
        <mxCell id="IW3bgXy1cVHlPl-f8HG7-23" value="" style="shape=flexArrow;endArrow=classic;html=1;rounded=0;fontSize=17;" edge="1" parent="WIyWlLk6GJQsqaUBKTNV-1">
          <mxGeometry width="50" height="50" relative="1" as="geometry">
            <mxPoint x="480" y="270" as="sourcePoint" />
            <mxPoint x="930" y="200" as="targetPoint" />
            <Array as="points">
              <mxPoint x="480" y="230" />
              <mxPoint x="640" y="230" />
              <mxPoint x="930" y="230" />
            </Array>
          </mxGeometry>
        </mxCell>
        <mxCell id="IW3bgXy1cVHlPl-f8HG7-25" value="" style="shape=flexArrow;endArrow=classic;html=1;rounded=0;fontSize=17;" edge="1" parent="WIyWlLk6GJQsqaUBKTNV-1">
          <mxGeometry width="50" height="50" relative="1" as="geometry">
            <mxPoint x="720" y="380" as="sourcePoint" />
            <mxPoint x="990" y="200" as="targetPoint" />
            <Array as="points">
              <mxPoint x="720" y="280" />
              <mxPoint x="990" y="280" />
            </Array>
          </mxGeometry>
        </mxCell>
        <mxCell id="IW3bgXy1cVHlPl-f8HG7-26" value="" style="shape=flexArrow;endArrow=classic;html=1;rounded=0;fontSize=17;" edge="1" parent="WIyWlLk6GJQsqaUBKTNV-1">
          <mxGeometry width="50" height="50" relative="1" as="geometry">
            <mxPoint x="1058.04" y="380" as="sourcePoint" />
            <mxPoint x="1058.04" y="200" as="targetPoint" />
            <Array as="points">
              <mxPoint x="1058.04" y="310" />
              <mxPoint x="1058.04" y="250" />
            </Array>
          </mxGeometry>
        </mxCell>
        <mxCell id="IW3bgXy1cVHlPl-f8HG7-29" value="redis - 商品在线特征表" style="rounded=0;whiteSpace=wrap;html=1;fontSize=17;fillColor=#fff2cc;strokeColor=#d6b656;" vertex="1" parent="WIyWlLk6GJQsqaUBKTNV-1">
          <mxGeometry x="380" y="280" width="200" height="60" as="geometry" />
        </mxCell>
        <mxCell id="IW3bgXy1cVHlPl-f8HG7-30" value="SLS&amp;nbsp;" style="rounded=0;whiteSpace=wrap;html=1;fontSize=17;fillColor=#d5e8d4;strokeColor=#82b366;" vertex="1" parent="WIyWlLk6GJQsqaUBKTNV-1">
          <mxGeometry x="-40" y="-100" width="90" height="60" as="geometry" />
        </mxCell>
        <mxCell id="IW3bgXy1cVHlPl-f8HG7-31" value="后端 - 搜索服务" style="rounded=0;whiteSpace=wrap;html=1;fontSize=17;fillColor=#dae8fc;strokeColor=#6c8ebf;" vertex="1" parent="WIyWlLk6GJQsqaUBKTNV-1">
          <mxGeometry x="92.5" y="60" width="147.5" height="120" as="geometry" />
        </mxCell>
        <mxCell id="IW3bgXy1cVHlPl-f8HG7-33" value="后端 - 商品特征实时更新" style="rounded=0;whiteSpace=wrap;html=1;fontSize=17;fillColor=#dae8fc;strokeColor=#6c8ebf;" vertex="1" parent="WIyWlLk6GJQsqaUBKTNV-1">
          <mxGeometry x="100" y="280" width="130" height="70" as="geometry" />
        </mxCell>
        <mxCell id="IW3bgXy1cVHlPl-f8HG7-34" value="" style="shape=flexArrow;endArrow=classic;html=1;rounded=0;fontSize=17;" edge="1" parent="WIyWlLk6GJQsqaUBKTNV-1">
          <mxGeometry width="50" height="50" relative="1" as="geometry">
            <mxPoint x="240" y="314.29" as="sourcePoint" />
            <mxPoint x="370" y="314" as="targetPoint" />
          </mxGeometry>
        </mxCell>
        <mxCell id="IW3bgXy1cVHlPl-f8HG7-35" value="" style="shape=flexArrow;endArrow=classic;html=1;rounded=0;fontSize=17;" edge="1" parent="WIyWlLk6GJQsqaUBKTNV-1">
          <mxGeometry width="50" height="50" relative="1" as="geometry">
            <mxPoint x="160" y="360" as="sourcePoint" />
            <mxPoint x="370" y="420" as="targetPoint" />
            <Array as="points">
              <mxPoint x="160" y="420" />
            </Array>
          </mxGeometry>
        </mxCell>
        <mxCell id="IW3bgXy1cVHlPl-f8HG7-36" value="实时读" style="text;html=1;strokeColor=none;fillColor=none;align=center;verticalAlign=middle;whiteSpace=wrap;rounded=0;fontSize=17;" vertex="1" parent="WIyWlLk6GJQsqaUBKTNV-1">
          <mxGeometry x="230" y="380" width="60" height="30" as="geometry" />
        </mxCell>
        <mxCell id="IW3bgXy1cVHlPl-f8HG7-37" value="实时写" style="text;html=1;strokeColor=none;fillColor=none;align=center;verticalAlign=middle;whiteSpace=wrap;rounded=0;fontSize=17;" vertex="1" parent="WIyWlLk6GJQsqaUBKTNV-1">
          <mxGeometry x="270" y="280" width="60" height="30" as="geometry" />
        </mxCell>
        <mxCell id="IW3bgXy1cVHlPl-f8HG7-40" value="" style="shape=flexArrow;endArrow=classic;html=1;rounded=0;fontSize=17;" edge="1" parent="WIyWlLk6GJQsqaUBKTNV-1">
          <mxGeometry width="50" height="50" relative="1" as="geometry">
            <mxPoint x="250" y="150" as="sourcePoint" />
            <mxPoint x="850" y="150" as="targetPoint" />
          </mxGeometry>
        </mxCell>
        <mxCell id="IW3bgXy1cVHlPl-f8HG7-41" value="召回结果" style="text;html=1;strokeColor=none;fillColor=none;align=center;verticalAlign=middle;whiteSpace=wrap;rounded=0;fontSize=17;" vertex="1" parent="WIyWlLk6GJQsqaUBKTNV-1">
          <mxGeometry x="430" y="110" width="90" height="30" as="geometry" />
        </mxCell>
        <mxCell id="IW3bgXy1cVHlPl-f8HG7-42" value="" style="shape=flexArrow;endArrow=classic;html=1;rounded=0;fontSize=17;" edge="1" parent="WIyWlLk6GJQsqaUBKTNV-1">
          <mxGeometry width="50" height="50" relative="1" as="geometry">
            <mxPoint x="850" y="90" as="sourcePoint" />
            <mxPoint x="250" y="90" as="targetPoint" />
          </mxGeometry>
        </mxCell>
        <mxCell id="IW3bgXy1cVHlPl-f8HG7-45" value="线上用户搜索行为" style="rounded=0;whiteSpace=wrap;html=1;fontSize=17;fillColor=#f5f5f5;strokeColor=#666666;fontColor=#333333;" vertex="1" parent="WIyWlLk6GJQsqaUBKTNV-1">
          <mxGeometry x="150" y="-100" width="970" height="60" as="geometry" />
        </mxCell>
        <mxCell id="IW3bgXy1cVHlPl-f8HG7-49" value="" style="shape=flexArrow;endArrow=classic;html=1;rounded=0;fontSize=17;" edge="1" parent="WIyWlLk6GJQsqaUBKTNV-1">
          <mxGeometry width="50" height="50" relative="1" as="geometry">
            <mxPoint x="140" y="-70" as="sourcePoint" />
            <mxPoint x="60" y="-70" as="targetPoint" />
            <Array as="points" />
          </mxGeometry>
        </mxCell>
        <mxCell id="IW3bgXy1cVHlPl-f8HG7-51" value="日志记录" style="text;html=1;strokeColor=none;fillColor=none;align=center;verticalAlign=middle;whiteSpace=wrap;rounded=0;fontSize=17;" vertex="1" parent="WIyWlLk6GJQsqaUBKTNV-1">
          <mxGeometry x="70" y="-120" width="70" height="30" as="geometry" />
        </mxCell>
        <mxCell id="IW3bgXy1cVHlPl-f8HG7-55" value="" style="shape=flexArrow;endArrow=classic;html=1;rounded=0;fontSize=17;" edge="1" parent="WIyWlLk6GJQsqaUBKTNV-1">
          <mxGeometry width="50" height="50" relative="1" as="geometry">
            <mxPoint x="170" y="-30" as="sourcePoint" />
            <mxPoint x="170" y="50" as="targetPoint" />
          </mxGeometry>
        </mxCell>
        <mxCell id="IW3bgXy1cVHlPl-f8HG7-56" value="" style="shape=flexArrow;endArrow=classic;html=1;rounded=0;fontSize=17;" edge="1" parent="WIyWlLk6GJQsqaUBKTNV-1">
          <mxGeometry width="50" height="50" relative="1" as="geometry">
            <mxPoint x="220" y="50" as="sourcePoint" />
            <mxPoint x="220" y="-30" as="targetPoint" />
          </mxGeometry>
        </mxCell>
        <mxCell id="IW3bgXy1cVHlPl-f8HG7-57" value="请求" style="text;html=1;strokeColor=none;fillColor=none;align=center;verticalAlign=middle;whiteSpace=wrap;rounded=0;fontSize=17;" vertex="1" parent="WIyWlLk6GJQsqaUBKTNV-1">
          <mxGeometry x="110" width="60" height="30" as="geometry" />
        </mxCell>
        <mxCell id="IW3bgXy1cVHlPl-f8HG7-58" value="返回搜索结果" style="text;html=1;strokeColor=none;fillColor=none;align=center;verticalAlign=middle;whiteSpace=wrap;rounded=0;fontSize=17;" vertex="1" parent="WIyWlLk6GJQsqaUBKTNV-1">
          <mxGeometry x="230" width="120" height="30" as="geometry" />
        </mxCell>
        <mxCell id="IW3bgXy1cVHlPl-f8HG7-59" value="" style="shape=flexArrow;endArrow=classic;html=1;rounded=0;fontSize=17;" edge="1" parent="WIyWlLk6GJQsqaUBKTNV-1">
          <mxGeometry width="50" height="50" relative="1" as="geometry">
            <mxPoint x="-1" y="-20" as="sourcePoint" />
            <mxPoint x="-1" y="500" as="targetPoint" />
          </mxGeometry>
        </mxCell>
        <mxCell id="IW3bgXy1cVHlPl-f8HG7-60" value="数据同步" style="text;html=1;strokeColor=none;fillColor=none;align=center;verticalAlign=middle;whiteSpace=wrap;rounded=0;fontSize=17;" vertex="1" parent="WIyWlLk6GJQsqaUBKTNV-1">
          <mxGeometry x="2.5" y="220" width="90" height="30" as="geometry" />
        </mxCell>
        <mxCell id="IW3bgXy1cVHlPl-f8HG7-62" value="排序结果" style="text;html=1;strokeColor=none;fillColor=none;align=center;verticalAlign=middle;whiteSpace=wrap;rounded=0;fontSize=17;" vertex="1" parent="WIyWlLk6GJQsqaUBKTNV-1">
          <mxGeometry x="435" y="50" width="80" height="30" as="geometry" />
        </mxCell>
        <mxCell id="IW3bgXy1cVHlPl-f8HG7-65" value="" style="endArrow=none;dashed=1;html=1;rounded=0;fontSize=17;strokeWidth=2;" edge="1" parent="WIyWlLk6GJQsqaUBKTNV-1">
          <mxGeometry width="50" height="50" relative="1" as="geometry">
            <mxPoint x="-220" y="370" as="sourcePoint" />
            <mxPoint x="1220" y="360" as="targetPoint" />
          </mxGeometry>
        </mxCell>
        <mxCell id="IW3bgXy1cVHlPl-f8HG7-66" value="&lt;font style=&quot;font-size: 20px;&quot;&gt;在线层&lt;/font&gt;" style="text;html=1;strokeColor=none;fillColor=none;align=center;verticalAlign=middle;whiteSpace=wrap;rounded=0;fontSize=17;" vertex="1" parent="WIyWlLk6GJQsqaUBKTNV-1">
          <mxGeometry x="-190" y="330" width="90" height="30" as="geometry" />
        </mxCell>
        <mxCell id="IW3bgXy1cVHlPl-f8HG7-67" value="&lt;font style=&quot;font-size: 20px;&quot;&gt;离线层&lt;/font&gt;" style="text;html=1;strokeColor=none;fillColor=none;align=center;verticalAlign=middle;whiteSpace=wrap;rounded=0;fontSize=17;" vertex="1" parent="WIyWlLk6GJQsqaUBKTNV-1">
          <mxGeometry x="-190" y="380" width="90" height="30" as="geometry" />
        </mxCell>
        <mxCell id="IW3bgXy1cVHlPl-f8HG7-70" value="10w-" style="shape=delay;whiteSpace=wrap;html=1;fontSize=16;" vertex="1" parent="WIyWlLk6GJQsqaUBKTNV-1">
          <mxGeometry x="800" y="405" width="50" height="30" as="geometry" />
        </mxCell>
        <mxCell id="IW3bgXy1cVHlPl-f8HG7-71" value="30w+" style="shape=delay;whiteSpace=wrap;html=1;fontSize=16;" vertex="1" parent="WIyWlLk6GJQsqaUBKTNV-1">
          <mxGeometry x="570" y="405" width="50" height="30" as="geometry" />
        </mxCell>
        <mxCell id="IW3bgXy1cVHlPl-f8HG7-72" value="100w+" style="shape=delay;whiteSpace=wrap;html=1;fontSize=16;" vertex="1" parent="WIyWlLk6GJQsqaUBKTNV-1">
          <mxGeometry x="70" y="525" width="60" height="30" as="geometry" />
        </mxCell>
        <mxCell id="IW3bgXy1cVHlPl-f8HG7-73" value="10w+" style="shape=delay;whiteSpace=wrap;html=1;fontSize=16;" vertex="1" parent="WIyWlLk6GJQsqaUBKTNV-1">
          <mxGeometry x="60" y="590" width="50" height="30" as="geometry" />
        </mxCell>
        <mxCell id="IW3bgXy1cVHlPl-f8HG7-75" value="100MB" style="shape=delay;whiteSpace=wrap;html=1;fontSize=16;" vertex="1" parent="WIyWlLk6GJQsqaUBKTNV-1">
          <mxGeometry x="1130" y="410" width="60" height="30" as="geometry" />
        </mxCell>
        <mxCell id="IW3bgXy1cVHlPl-f8HG7-77" value="&lt;h1&gt;爆料/折扣搜索&lt;/h1&gt;" style="text;html=1;strokeColor=none;fillColor=none;spacing=5;spacingTop=-20;whiteSpace=wrap;overflow=hidden;rounded=0;" vertex="1" parent="WIyWlLk6GJQsqaUBKTNV-1">
          <mxGeometry x="450" y="-210" width="180" height="60" as="geometry" />
        </mxCell>
      </root>
    </mxGraphModel>
  </diagram>
</mxfile>
